<?xml version="1.0" encoding="UTF-8" standalone="no"?>
<!DOCTYPE svg PUBLIC "-//W3C//DTD SVG 1.1//EN"
 "http://www.w3.org/Graphics/SVG/1.1/DTD/svg11.dtd">
<!-- Generated by graphviz version 2.40.1 (20161225.0304)
 -->
<!-- Title: R Pages: 1 -->
<svg width="230pt" height="81pt"
 viewBox="0.00 0.00 229.77 80.60" xmlns="http://www.w3.org/2000/svg" xmlns:xlink="http://www.w3.org/1999/xlink">
<g id="graph0" class="graph" transform="scale(1 1) rotate(0) translate(4 76.5999)">
<title>R</title>
<polygon fill="#ffffff" stroke="transparent" points="-4,4 -4,-76.5999 225.7656,-76.5999 225.7656,4 -4,4"/>
<text text-anchor="middle" x="110.8828" y="-12.3999" font-family="Times,serif" font-size="14.00" fill="#000000">原始数组L</text>
<!-- L -->
<g id="node1" class="node">
<title>L</title>
<polygon fill="none" stroke="#000000" points="0,-28.0999 0,-72.0999 221.7656,-72.0999 221.7656,-28.0999 0,-28.0999"/>
<text text-anchor="middle" x="18.8828" y="-56.8999" font-family="Times,serif" font-size="14.00" fill="#000000">L[i]</text>
<polyline fill="none" stroke="#000000" points="0,-50.0999 37.7656,-50.0999 "/>
<text text-anchor="middle" x="18.4448" y="-34.8999" font-family="Times,serif" font-size="14.00" fill="#000000">i</text>
<polyline fill="none" stroke="#000000" points="37.7656,-28.0999 37.7656,-72.0999 "/>
<text text-anchor="middle" x="49.2656" y="-56.8999" font-family="Times,serif" font-size="14.00" fill="#000000">2</text>
<polyline fill="none" stroke="#000000" points="37.7656,-50.0999 60.7656,-50.0999 "/>
<text text-anchor="middle" x="49.2656" y="-34.8999" font-family="Times,serif" font-size="14.00" fill="#000000">0</text>
<polyline fill="none" stroke="#000000" points="60.7656,-28.0999 60.7656,-72.0999 "/>
<text text-anchor="middle" x="72.2656" y="-56.8999" font-family="Times,serif" font-size="14.00" fill="#000000">1</text>
<polyline fill="none" stroke="#000000" points="60.7656,-50.0999 83.7656,-50.0999 "/>
<text text-anchor="middle" x="72.2656" y="-34.8999" font-family="Times,serif" font-size="14.00" fill="#000000">1</text>
<polyline fill="none" stroke="#000000" points="83.7656,-28.0999 83.7656,-72.0999 "/>
<text text-anchor="middle" x="95.2656" y="-56.8999" font-family="Times,serif" font-size="14.00" fill="#000000">6</text>
<polyline fill="none" stroke="#000000" points="83.7656,-50.0999 106.7656,-50.0999 "/>
<text text-anchor="middle" x="95.2656" y="-34.8999" font-family="Times,serif" font-size="14.00" fill="#000000">2</text>
<polyline fill="none" stroke="#000000" points="106.7656,-28.0999 106.7656,-72.0999 "/>
<text text-anchor="middle" x="118.2656" y="-56.8999" font-family="Times,serif" font-size="14.00" fill="#000000">4</text>
<polyline fill="none" stroke="#000000" points="106.7656,-50.0999 129.7656,-50.0999 "/>
<text text-anchor="middle" x="118.2656" y="-34.8999" font-family="Times,serif" font-size="14.00" fill="#000000">3</text>
<polyline fill="none" stroke="#000000" points="129.7656,-28.0999 129.7656,-72.0999 "/>
<text text-anchor="middle" x="141.2656" y="-56.8999" font-family="Times,serif" font-size="14.00" fill="#000000">5</text>
<polyline fill="none" stroke="#000000" points="129.7656,-50.0999 152.7656,-50.0999 "/>
<text text-anchor="middle" x="141.2656" y="-34.8999" font-family="Times,serif" font-size="14.00" fill="#000000">4</text>
<polyline fill="none" stroke="#000000" points="152.7656,-28.0999 152.7656,-72.0999 "/>
<text text-anchor="middle" x="164.2656" y="-56.8999" font-family="Times,serif" font-size="14.00" fill="#000000">2</text>
<polyline fill="none" stroke="#000000" points="152.7656,-50.0999 175.7656,-50.0999 "/>
<text text-anchor="middle" x="164.2656" y="-34.8999" font-family="Times,serif" font-size="14.00" fill="#000000">5</text>
<polyline fill="none" stroke="#000000" points="175.7656,-28.0999 175.7656,-72.0999 "/>
<text text-anchor="middle" x="187.2656" y="-56.8999" font-family="Times,serif" font-size="14.00" fill="#000000">7</text>
<polyline fill="none" stroke="#000000" points="175.7656,-50.0999 198.7656,-50.0999 "/>
<text text-anchor="middle" x="187.2656" y="-34.8999" font-family="Times,serif" font-size="14.00" fill="#000000">6</text>
<polyline fill="none" stroke="#000000" points="198.7656,-28.0999 198.7656,-72.0999 "/>
<text text-anchor="middle" x="210.2656" y="-56.8999" font-family="Times,serif" font-size="14.00" fill="#000000">4</text>
<polyline fill="none" stroke="#000000" points="198.7656,-50.0999 221.7656,-50.0999 "/>
<text text-anchor="middle" x="210.2656" y="-34.8999" font-family="Times,serif" font-size="14.00" fill="#000000">7</text>
</g>
</g>
</svg>
