<?xml version="1.0" encoding="UTF-8" standalone="no"?>
<!DOCTYPE svg PUBLIC "-//W3C//DTD SVG 1.1//EN"
 "http://www.w3.org/Graphics/SVG/1.1/DTD/svg11.dtd">
<!-- Generated by graphviz version 2.40.1 (20161225.0304)
 -->
<!-- Title: R Pages: 1 -->
<svg width="231pt" height="103pt"
 viewBox="0.00 0.00 230.55 102.60" xmlns="http://www.w3.org/2000/svg" xmlns:xlink="http://www.w3.org/1999/xlink">
<g id="graph0" class="graph" transform="scale(1 1) rotate(0) translate(4 98.5999)">
<title>R</title>
<polygon fill="#ffffff" stroke="transparent" points="-4,4 -4,-98.5999 226.5518,-98.5999 226.5518,4 -4,4"/>
<text text-anchor="middle" x="111.2759" y="-12.3999" font-family="Times,serif" font-size="14.00" fill="#000000">辅助数组R</text>
<!-- R1 -->
<g id="node1" class="node">
<title>R1</title>
<polygon fill="none" stroke="#000000" points="0,-28.0999 0,-94.0999 222.5518,-94.0999 222.5518,-28.0999 0,-28.0999"/>
<text text-anchor="middle" x="19.2759" y="-78.8999" font-family="Times,serif" font-size="14.00" fill="#000000">L[i]</text>
<polyline fill="none" stroke="#000000" points="0,-72.0999 38.5518,-72.0999 "/>
<text text-anchor="middle" x="19.2759" y="-56.8999" font-family="Times,serif" font-size="14.00" fill="#000000">R[i]</text>
<polyline fill="none" stroke="#000000" points="0,-50.0999 38.5518,-50.0999 "/>
<text text-anchor="middle" x="19.2759" y="-34.8999" font-family="Times,serif" font-size="14.00" fill="#000000">i</text>
<polyline fill="none" stroke="#000000" points="38.5518,-28.0999 38.5518,-94.0999 "/>
<text text-anchor="middle" x="50.0518" y="-78.8999" font-family="Times,serif" font-size="14.00" fill="#000000">2</text>
<polyline fill="none" stroke="#000000" points="38.5518,-72.0999 61.5518,-72.0999 "/>
<text text-anchor="middle" x="50.0518" y="-56.8999" font-family="Times,serif" font-size="14.00" fill="#000000">1</text>
<polyline fill="none" stroke="#000000" points="38.5518,-50.0999 61.5518,-50.0999 "/>
<text text-anchor="middle" x="50.0518" y="-34.8999" font-family="Times,serif" font-size="14.00" fill="#000000">0</text>
<polyline fill="none" stroke="#000000" points="61.5518,-28.0999 61.5518,-94.0999 "/>
<text text-anchor="middle" x="73.0518" y="-78.8999" font-family="Times,serif" font-size="14.00" fill="#000000">1</text>
<polyline fill="none" stroke="#000000" points="61.5518,-72.0999 84.5518,-72.0999 "/>
<text text-anchor="middle" x="73.0518" y="-56.8999" font-family="Times,serif" font-size="14.00" fill="#000000">1</text>
<polyline fill="none" stroke="#000000" points="61.5518,-50.0999 84.5518,-50.0999 "/>
<text text-anchor="middle" x="73.0518" y="-34.8999" font-family="Times,serif" font-size="14.00" fill="#000000">1</text>
<polyline fill="none" stroke="#000000" points="84.5518,-28.0999 84.5518,-94.0999 "/>
<text text-anchor="middle" x="96.0518" y="-78.8999" font-family="Times,serif" font-size="14.00" fill="#000000">6</text>
<polyline fill="none" stroke="#000000" points="84.5518,-72.0999 107.5518,-72.0999 "/>
<text text-anchor="middle" x="96.0518" y="-56.8999" font-family="Times,serif" font-size="14.00" fill="#000000"> </text>
<polyline fill="none" stroke="#000000" points="84.5518,-50.0999 107.5518,-50.0999 "/>
<text text-anchor="middle" x="96.0518" y="-34.8999" font-family="Times,serif" font-size="14.00" fill="#000000">2</text>
<polyline fill="none" stroke="#000000" points="107.5518,-28.0999 107.5518,-94.0999 "/>
<text text-anchor="middle" x="119.0518" y="-78.8999" font-family="Times,serif" font-size="14.00" fill="#000000">4</text>
<polyline fill="none" stroke="#000000" points="107.5518,-72.0999 130.5518,-72.0999 "/>
<text text-anchor="middle" x="119.0518" y="-56.8999" font-family="Times,serif" font-size="14.00" fill="#000000"> </text>
<polyline fill="none" stroke="#000000" points="107.5518,-50.0999 130.5518,-50.0999 "/>
<text text-anchor="middle" x="119.0518" y="-34.8999" font-family="Times,serif" font-size="14.00" fill="#000000">3</text>
<polyline fill="none" stroke="#000000" points="130.5518,-28.0999 130.5518,-94.0999 "/>
<text text-anchor="middle" x="142.0518" y="-78.8999" font-family="Times,serif" font-size="14.00" fill="#000000">5</text>
<polyline fill="none" stroke="#000000" points="130.5518,-72.0999 153.5518,-72.0999 "/>
<text text-anchor="middle" x="142.0518" y="-56.8999" font-family="Times,serif" font-size="14.00" fill="#000000"> </text>
<polyline fill="none" stroke="#000000" points="130.5518,-50.0999 153.5518,-50.0999 "/>
<text text-anchor="middle" x="142.0518" y="-34.8999" font-family="Times,serif" font-size="14.00" fill="#000000">4</text>
<polyline fill="none" stroke="#000000" points="153.5518,-28.0999 153.5518,-94.0999 "/>
<text text-anchor="middle" x="165.0518" y="-78.8999" font-family="Times,serif" font-size="14.00" fill="#000000">2</text>
<polyline fill="none" stroke="#000000" points="153.5518,-72.0999 176.5518,-72.0999 "/>
<text text-anchor="middle" x="165.0518" y="-56.8999" font-family="Times,serif" font-size="14.00" fill="#000000"> </text>
<polyline fill="none" stroke="#000000" points="153.5518,-50.0999 176.5518,-50.0999 "/>
<text text-anchor="middle" x="165.0518" y="-34.8999" font-family="Times,serif" font-size="14.00" fill="#000000">5</text>
<polyline fill="none" stroke="#000000" points="176.5518,-28.0999 176.5518,-94.0999 "/>
<text text-anchor="middle" x="188.0518" y="-78.8999" font-family="Times,serif" font-size="14.00" fill="#000000">7</text>
<polyline fill="none" stroke="#000000" points="176.5518,-72.0999 199.5518,-72.0999 "/>
<text text-anchor="middle" x="188.0518" y="-56.8999" font-family="Times,serif" font-size="14.00" fill="#000000"> </text>
<polyline fill="none" stroke="#000000" points="176.5518,-50.0999 199.5518,-50.0999 "/>
<text text-anchor="middle" x="188.0518" y="-34.8999" font-family="Times,serif" font-size="14.00" fill="#000000">6</text>
<polyline fill="none" stroke="#000000" points="199.5518,-28.0999 199.5518,-94.0999 "/>
<text text-anchor="middle" x="211.0518" y="-78.8999" font-family="Times,serif" font-size="14.00" fill="#000000">4</text>
<polyline fill="none" stroke="#000000" points="199.5518,-72.0999 222.5518,-72.0999 "/>
<text text-anchor="middle" x="211.0518" y="-56.8999" font-family="Times,serif" font-size="14.00" fill="#000000"> </text>
<polyline fill="none" stroke="#000000" points="199.5518,-50.0999 222.5518,-50.0999 "/>
<text text-anchor="middle" x="211.0518" y="-34.8999" font-family="Times,serif" font-size="14.00" fill="#000000">7</text>
</g>
</g>
</svg>
