<?xml version="1.0" encoding="UTF-8" standalone="no"?>
<!DOCTYPE svg PUBLIC "-//W3C//DTD SVG 1.1//EN"
 "http://www.w3.org/Graphics/SVG/1.1/DTD/svg11.dtd">
<!-- Generated by graphviz version 2.40.1 (20161225.0304)
 -->
<!-- Title: R Pages: 1 -->
<svg width="231pt" height="156pt"
 viewBox="0.00 0.00 231.16 156.00" xmlns="http://www.w3.org/2000/svg" xmlns:xlink="http://www.w3.org/1999/xlink">
<g id="graph0" class="graph" transform="scale(1 1) rotate(0) translate(4 152)">
<title>R</title>
<polygon fill="#ffffff" stroke="transparent" points="-4,4 -4,-152 227.1587,-152 227.1587,4 -4,4"/>
<text text-anchor="middle" x="111.5793" y="-6.8" font-family="Times,serif" font-size="14.00" fill="#000000">i=1</text>
<!-- R -->
<g id="node1" class="node">
<title>R</title>
<polygon fill="none" stroke="#000000" points="1.3931,-103.5 1.3931,-147.5 223.1587,-147.5 223.1587,-103.5 1.3931,-103.5"/>
<text text-anchor="middle" x="20.2759" y="-132.3" font-family="Times,serif" font-size="14.00" fill="#000000">i</text>
<polyline fill="none" stroke="#000000" points="1.3931,-125.5 39.1587,-125.5 "/>
<text text-anchor="middle" x="20.2759" y="-110.3" font-family="Times,serif" font-size="14.00" fill="#000000">L[i]</text>
<polyline fill="none" stroke="#000000" points="39.1587,-103.5 39.1587,-147.5 "/>
<text text-anchor="middle" x="50.6587" y="-132.3" font-family="Times,serif" font-size="14.00" fill="#000000">0</text>
<polyline fill="none" stroke="#000000" points="39.1587,-125.5 62.1587,-125.5 "/>
<text text-anchor="middle" x="50.6587" y="-110.3" font-family="Times,serif" font-size="14.00" fill="#000000">2</text>
<polyline fill="none" stroke="#000000" points="62.1587,-103.5 62.1587,-147.5 "/>
<text text-anchor="middle" x="73.6587" y="-132.3" font-family="Times,serif" font-size="14.00" fill="#000000">1</text>
<polyline fill="none" stroke="#000000" points="62.1587,-125.5 85.1587,-125.5 "/>
<text text-anchor="middle" x="73.6587" y="-110.3" font-family="Times,serif" font-size="14.00" fill="#000000">1</text>
<polyline fill="none" stroke="#000000" points="85.1587,-103.5 85.1587,-147.5 "/>
<text text-anchor="middle" x="96.6587" y="-132.3" font-family="Times,serif" font-size="14.00" fill="#000000">2</text>
<polyline fill="none" stroke="#000000" points="85.1587,-125.5 108.1587,-125.5 "/>
<text text-anchor="middle" x="96.6587" y="-110.3" font-family="Times,serif" font-size="14.00" fill="#000000">6</text>
<polyline fill="none" stroke="#000000" points="108.1587,-103.5 108.1587,-147.5 "/>
<text text-anchor="middle" x="119.6587" y="-132.3" font-family="Times,serif" font-size="14.00" fill="#000000">3</text>
<polyline fill="none" stroke="#000000" points="108.1587,-125.5 131.1587,-125.5 "/>
<text text-anchor="middle" x="119.6587" y="-110.3" font-family="Times,serif" font-size="14.00" fill="#000000">4</text>
<polyline fill="none" stroke="#000000" points="131.1587,-103.5 131.1587,-147.5 "/>
<text text-anchor="middle" x="142.6587" y="-132.3" font-family="Times,serif" font-size="14.00" fill="#000000">4</text>
<polyline fill="none" stroke="#000000" points="131.1587,-125.5 154.1587,-125.5 "/>
<text text-anchor="middle" x="142.6587" y="-110.3" font-family="Times,serif" font-size="14.00" fill="#000000">5</text>
<polyline fill="none" stroke="#000000" points="154.1587,-103.5 154.1587,-147.5 "/>
<text text-anchor="middle" x="165.6587" y="-132.3" font-family="Times,serif" font-size="14.00" fill="#000000">5</text>
<polyline fill="none" stroke="#000000" points="154.1587,-125.5 177.1587,-125.5 "/>
<text text-anchor="middle" x="165.6587" y="-110.3" font-family="Times,serif" font-size="14.00" fill="#000000">2</text>
<polyline fill="none" stroke="#000000" points="177.1587,-103.5 177.1587,-147.5 "/>
<text text-anchor="middle" x="188.6587" y="-132.3" font-family="Times,serif" font-size="14.00" fill="#000000">6</text>
<polyline fill="none" stroke="#000000" points="177.1587,-125.5 200.1587,-125.5 "/>
<text text-anchor="middle" x="188.6587" y="-110.3" font-family="Times,serif" font-size="14.00" fill="#000000">7</text>
<polyline fill="none" stroke="#000000" points="200.1587,-103.5 200.1587,-147.5 "/>
<text text-anchor="middle" x="211.6587" y="-132.3" font-family="Times,serif" font-size="14.00" fill="#000000">7</text>
<polyline fill="none" stroke="#000000" points="200.1587,-125.5 223.1587,-125.5 "/>
<text text-anchor="middle" x="211.6587" y="-110.3" font-family="Times,serif" font-size="14.00" fill="#000000">4</text>
</g>
<!-- L -->
<g id="node2" class="node">
<title>L</title>
<polygon fill="none" stroke="#000000" points="0,-22.5 0,-66.5 222.5518,-66.5 222.5518,-22.5 0,-22.5"/>
<text text-anchor="middle" x="19.2759" y="-51.3" font-family="Times,serif" font-size="14.00" fill="#000000">R[j]</text>
<polyline fill="none" stroke="#000000" points="0,-44.5 38.5518,-44.5 "/>
<text text-anchor="middle" x="19.2759" y="-29.3" font-family="Times,serif" font-size="14.00" fill="#000000">j</text>
<polyline fill="none" stroke="#000000" points="38.5518,-22.5 38.5518,-66.5 "/>
<text text-anchor="middle" x="50.0518" y="-51.3" font-family="Times,serif" font-size="14.00" fill="#000000">2</text>
<polyline fill="none" stroke="#000000" points="38.5518,-44.5 61.5518,-44.5 "/>
<text text-anchor="middle" x="50.0518" y="-29.3" font-family="Times,serif" font-size="14.00" fill="#000000">0</text>
<polyline fill="none" stroke="#000000" points="61.5518,-22.5 61.5518,-66.5 "/>
<text text-anchor="middle" x="73.0518" y="-51.3" font-family="Times,serif" font-size="14.00" fill="#000000"> </text>
<polyline fill="none" stroke="#000000" points="61.5518,-44.5 84.5518,-44.5 "/>
<text text-anchor="middle" x="73.0518" y="-29.3" font-family="Times,serif" font-size="14.00" fill="#000000">1</text>
<polyline fill="none" stroke="#000000" points="84.5518,-22.5 84.5518,-66.5 "/>
<text text-anchor="middle" x="96.0518" y="-51.3" font-family="Times,serif" font-size="14.00" fill="#000000"> </text>
<polyline fill="none" stroke="#000000" points="84.5518,-44.5 107.5518,-44.5 "/>
<text text-anchor="middle" x="96.0518" y="-29.3" font-family="Times,serif" font-size="14.00" fill="#000000">2</text>
<polyline fill="none" stroke="#000000" points="107.5518,-22.5 107.5518,-66.5 "/>
<text text-anchor="middle" x="119.0518" y="-51.3" font-family="Times,serif" font-size="14.00" fill="#000000"> </text>
<polyline fill="none" stroke="#000000" points="107.5518,-44.5 130.5518,-44.5 "/>
<text text-anchor="middle" x="119.0518" y="-29.3" font-family="Times,serif" font-size="14.00" fill="#000000">3</text>
<polyline fill="none" stroke="#000000" points="130.5518,-22.5 130.5518,-66.5 "/>
<text text-anchor="middle" x="142.0518" y="-51.3" font-family="Times,serif" font-size="14.00" fill="#000000"> </text>
<polyline fill="none" stroke="#000000" points="130.5518,-44.5 153.5518,-44.5 "/>
<text text-anchor="middle" x="142.0518" y="-29.3" font-family="Times,serif" font-size="14.00" fill="#000000">4</text>
<polyline fill="none" stroke="#000000" points="153.5518,-22.5 153.5518,-66.5 "/>
<text text-anchor="middle" x="165.0518" y="-51.3" font-family="Times,serif" font-size="14.00" fill="#000000"> </text>
<polyline fill="none" stroke="#000000" points="153.5518,-44.5 176.5518,-44.5 "/>
<text text-anchor="middle" x="165.0518" y="-29.3" font-family="Times,serif" font-size="14.00" fill="#000000">5</text>
<polyline fill="none" stroke="#000000" points="176.5518,-22.5 176.5518,-66.5 "/>
<text text-anchor="middle" x="188.0518" y="-51.3" font-family="Times,serif" font-size="14.00" fill="#000000"> </text>
<polyline fill="none" stroke="#000000" points="176.5518,-44.5 199.5518,-44.5 "/>
<text text-anchor="middle" x="188.0518" y="-29.3" font-family="Times,serif" font-size="14.00" fill="#000000">6</text>
<polyline fill="none" stroke="#000000" points="199.5518,-22.5 199.5518,-66.5 "/>
<text text-anchor="middle" x="211.0518" y="-51.3" font-family="Times,serif" font-size="14.00" fill="#000000"> </text>
<polyline fill="none" stroke="#000000" points="199.5518,-44.5 222.5518,-44.5 "/>
<text text-anchor="middle" x="211.0518" y="-29.3" font-family="Times,serif" font-size="14.00" fill="#000000">7</text>
</g>
<!-- R&#45;&gt;L -->
<g id="edge1" class="edge">
<title>R:here&#45;&gt;L:here</title>
<path fill="none" stroke="#000000" d="M50.2759,-103.5C50.2759,-91.0382 50.2759,-85.6592 50.2759,-76.6281"/>
<polygon fill="#000000" stroke="#000000" points="53.776,-76.5 50.2759,-66.5 46.776,-76.5 53.776,-76.5"/>
</g>
</g>
</svg>
