<?xml version="1.0" encoding="UTF-8" standalone="no"?>
<!DOCTYPE svg PUBLIC "-//W3C//DTD SVG 1.1//EN"
 "http://www.w3.org/Graphics/SVG/1.1/DTD/svg11.dtd">
<!-- Generated by graphviz version 2.40.1 (20161225.0304)
 -->
<!-- Title: R Pages: 1 -->
<svg width="344pt" height="156pt"
 viewBox="0.00 0.00 344.16 156.00" xmlns="http://www.w3.org/2000/svg" xmlns:xlink="http://www.w3.org/1999/xlink">
<g id="graph0" class="graph" transform="scale(1 1) rotate(0) translate(4 152)">
<title>R</title>
<polygon fill="#ffffff" stroke="transparent" points="-4,4 -4,-152 340.1587,-152 340.1587,4 -4,4"/>
<text text-anchor="middle" x="168.0793" y="-6.8" font-family="Times,serif" font-size="14.00" fill="#000000">i=1</text>
<!-- R -->
<g id="node1" class="node">
<title>R</title>
<polygon fill="none" stroke="#000000" points="0,-103.5 0,-147.5 221.7656,-147.5 221.7656,-103.5 0,-103.5"/>
<text text-anchor="middle" x="18.8828" y="-132.3" font-family="Times,serif" font-size="14.00" fill="#000000">i</text>
<polyline fill="none" stroke="#000000" points="0,-125.5 37.7656,-125.5 "/>
<text text-anchor="middle" x="18.8828" y="-110.3" font-family="Times,serif" font-size="14.00" fill="#000000">L[i]</text>
<polyline fill="none" stroke="#000000" points="37.7656,-103.5 37.7656,-147.5 "/>
<text text-anchor="middle" x="49.2656" y="-132.3" font-family="Times,serif" font-size="14.00" fill="#000000">0</text>
<polyline fill="none" stroke="#000000" points="37.7656,-125.5 60.7656,-125.5 "/>
<text text-anchor="middle" x="49.2656" y="-110.3" font-family="Times,serif" font-size="14.00" fill="#000000">2</text>
<polyline fill="none" stroke="#000000" points="60.7656,-103.5 60.7656,-147.5 "/>
<text text-anchor="middle" x="72.2656" y="-132.3" font-family="Times,serif" font-size="14.00" fill="#000000">1</text>
<polyline fill="none" stroke="#000000" points="60.7656,-125.5 83.7656,-125.5 "/>
<text text-anchor="middle" x="72.2656" y="-110.3" font-family="Times,serif" font-size="14.00" fill="#000000">1</text>
<polyline fill="none" stroke="#000000" points="83.7656,-103.5 83.7656,-147.5 "/>
<text text-anchor="middle" x="95.2656" y="-132.3" font-family="Times,serif" font-size="14.00" fill="#000000">2</text>
<polyline fill="none" stroke="#000000" points="83.7656,-125.5 106.7656,-125.5 "/>
<text text-anchor="middle" x="95.2656" y="-110.3" font-family="Times,serif" font-size="14.00" fill="#000000">6</text>
<polyline fill="none" stroke="#000000" points="106.7656,-103.5 106.7656,-147.5 "/>
<text text-anchor="middle" x="118.2656" y="-132.3" font-family="Times,serif" font-size="14.00" fill="#000000">3</text>
<polyline fill="none" stroke="#000000" points="106.7656,-125.5 129.7656,-125.5 "/>
<text text-anchor="middle" x="118.2656" y="-110.3" font-family="Times,serif" font-size="14.00" fill="#000000">4</text>
<polyline fill="none" stroke="#000000" points="129.7656,-103.5 129.7656,-147.5 "/>
<text text-anchor="middle" x="141.2656" y="-132.3" font-family="Times,serif" font-size="14.00" fill="#000000">4</text>
<polyline fill="none" stroke="#000000" points="129.7656,-125.5 152.7656,-125.5 "/>
<text text-anchor="middle" x="141.2656" y="-110.3" font-family="Times,serif" font-size="14.00" fill="#000000">5</text>
<polyline fill="none" stroke="#000000" points="152.7656,-103.5 152.7656,-147.5 "/>
<text text-anchor="middle" x="164.2656" y="-132.3" font-family="Times,serif" font-size="14.00" fill="#000000">5</text>
<polyline fill="none" stroke="#000000" points="152.7656,-125.5 175.7656,-125.5 "/>
<text text-anchor="middle" x="164.2656" y="-110.3" font-family="Times,serif" font-size="14.00" fill="#000000">2</text>
<polyline fill="none" stroke="#000000" points="175.7656,-103.5 175.7656,-147.5 "/>
<text text-anchor="middle" x="187.2656" y="-132.3" font-family="Times,serif" font-size="14.00" fill="#000000">6</text>
<polyline fill="none" stroke="#000000" points="175.7656,-125.5 198.7656,-125.5 "/>
<text text-anchor="middle" x="187.2656" y="-110.3" font-family="Times,serif" font-size="14.00" fill="#000000">7</text>
<polyline fill="none" stroke="#000000" points="198.7656,-103.5 198.7656,-147.5 "/>
<text text-anchor="middle" x="210.2656" y="-132.3" font-family="Times,serif" font-size="14.00" fill="#000000">7</text>
<polyline fill="none" stroke="#000000" points="198.7656,-125.5 221.7656,-125.5 "/>
<text text-anchor="middle" x="210.2656" y="-110.3" font-family="Times,serif" font-size="14.00" fill="#000000">4</text>
</g>
<!-- L -->
<g id="node2" class="node">
<title>L</title>
<polygon fill="none" stroke="#000000" points="113.6069,-22.5 113.6069,-66.5 336.1587,-66.5 336.1587,-22.5 113.6069,-22.5"/>
<text text-anchor="middle" x="132.8828" y="-51.3" font-family="Times,serif" font-size="14.00" fill="#000000">R[j]</text>
<polyline fill="none" stroke="#000000" points="113.6069,-44.5 152.1587,-44.5 "/>
<text text-anchor="middle" x="132.8828" y="-29.3" font-family="Times,serif" font-size="14.00" fill="#000000">j</text>
<polyline fill="none" stroke="#000000" points="152.1587,-22.5 152.1587,-66.5 "/>
<text text-anchor="middle" x="163.6587" y="-51.3" font-family="Times,serif" font-size="14.00" fill="#000000">1</text>
<polyline fill="none" stroke="#000000" points="152.1587,-44.5 175.1587,-44.5 "/>
<text text-anchor="middle" x="163.6587" y="-29.3" font-family="Times,serif" font-size="14.00" fill="#000000">0</text>
<polyline fill="none" stroke="#000000" points="175.1587,-22.5 175.1587,-66.5 "/>
<text text-anchor="middle" x="186.6587" y="-51.3" font-family="Times,serif" font-size="14.00" fill="#000000">2</text>
<polyline fill="none" stroke="#000000" points="175.1587,-44.5 198.1587,-44.5 "/>
<text text-anchor="middle" x="186.6587" y="-29.3" font-family="Times,serif" font-size="14.00" fill="#000000">1</text>
<polyline fill="none" stroke="#000000" points="198.1587,-22.5 198.1587,-66.5 "/>
<text text-anchor="middle" x="209.6587" y="-51.3" font-family="Times,serif" font-size="14.00" fill="#000000">4</text>
<polyline fill="none" stroke="#000000" points="198.1587,-44.5 221.1587,-44.5 "/>
<text text-anchor="middle" x="209.6587" y="-29.3" font-family="Times,serif" font-size="14.00" fill="#000000">2</text>
<polyline fill="none" stroke="#000000" points="221.1587,-22.5 221.1587,-66.5 "/>
<text text-anchor="middle" x="232.6587" y="-51.3" font-family="Times,serif" font-size="14.00" fill="#000000">7</text>
<polyline fill="none" stroke="#000000" points="221.1587,-44.5 244.1587,-44.5 "/>
<text text-anchor="middle" x="232.6587" y="-29.3" font-family="Times,serif" font-size="14.00" fill="#000000">3</text>
<polyline fill="none" stroke="#000000" points="244.1587,-22.5 244.1587,-66.5 "/>
<text text-anchor="middle" x="255.6587" y="-51.3" font-family="Times,serif" font-size="14.00" fill="#000000"> </text>
<polyline fill="none" stroke="#000000" points="244.1587,-44.5 267.1587,-44.5 "/>
<text text-anchor="middle" x="255.6587" y="-29.3" font-family="Times,serif" font-size="14.00" fill="#000000">4</text>
<polyline fill="none" stroke="#000000" points="267.1587,-22.5 267.1587,-66.5 "/>
<text text-anchor="middle" x="278.6587" y="-51.3" font-family="Times,serif" font-size="14.00" fill="#000000"> </text>
<polyline fill="none" stroke="#000000" points="267.1587,-44.5 290.1587,-44.5 "/>
<text text-anchor="middle" x="278.6587" y="-29.3" font-family="Times,serif" font-size="14.00" fill="#000000">5</text>
<polyline fill="none" stroke="#000000" points="290.1587,-22.5 290.1587,-66.5 "/>
<text text-anchor="middle" x="301.6587" y="-51.3" font-family="Times,serif" font-size="14.00" fill="#000000"> </text>
<polyline fill="none" stroke="#000000" points="290.1587,-44.5 313.1587,-44.5 "/>
<text text-anchor="middle" x="301.6587" y="-29.3" font-family="Times,serif" font-size="14.00" fill="#000000">6</text>
<polyline fill="none" stroke="#000000" points="313.1587,-22.5 313.1587,-66.5 "/>
<text text-anchor="middle" x="324.6587" y="-51.3" font-family="Times,serif" font-size="14.00" fill="#000000"> </text>
<polyline fill="none" stroke="#000000" points="313.1587,-44.5 336.1587,-44.5 "/>
<text text-anchor="middle" x="324.6587" y="-29.3" font-family="Times,serif" font-size="14.00" fill="#000000">7</text>
</g>
<!-- R&#45;&gt;L -->
<g id="edge1" class="edge">
<title>R:here&#45;&gt;L:here</title>
<path fill="none" stroke="#000000" d="M209.8828,-103.5C209.8828,-91.0382 209.8828,-85.6592 209.8828,-76.6281"/>
<polygon fill="#000000" stroke="#000000" points="213.3829,-76.5 209.8828,-66.5 206.3829,-76.5 213.3829,-76.5"/>
</g>
</g>
</svg>
